<?xml version="1.0" encoding="utf-8"?>
<!-- Generator: Adobe Illustrator 24.2.1, SVG Export Plug-In . SVG Version: 6.00 Build 0)  -->
<svg version="1.1" id="Layer_1" xmlns="http://www.w3.org/2000/svg" xmlns:xlink="http://www.w3.org/1999/xlink" x="0px" y="0px"
	 viewBox="0 0 397.5 108.1" style="enable-background:new 0 0 397.5 108.1;" xml:space="preserve">
<style type="text/css">
	.st0{fill-rule:evenodd;clip-rule:evenodd;fill:#006B7E;}
	.st1{fill-rule:evenodd;clip-rule:evenodd;fill:#00B0A0;}
	.st2{fill-rule:evenodd;clip-rule:evenodd;fill:#FFFFFF;}
	.st3{fill:#006B7E;}
</style>
<g id="Layer_2_1_">
	<g id="Layer_1-2">
		<path class="st0" d="M278,88.4v-40h18.3l22.9,30.5l-0.3-30.5h10.9v40h-18.5l-22.6-30.1l0.3,30.1H278z M239.8,72.9h16.3l-8.3-16
			L239.8,72.9z M219.1,88.4l21.2-40h15.4l20.6,40h-12.6l-3.8-7.1h-24.3l-3.6,7.1H219.1z M171.3,75.7h11.3c0,0.8,0.1,1.6,0.3,2.4
			c0.2,0.8,0.8,1.3,1.6,1.6c1,0.3,2,0.4,3.1,0.4l4.5,0.2c0.7,0,3.5,0,8.4-0.1c1.4,0,2.9-0.1,4.2-0.5c1.4-0.4,2.4-1.8,2.3-3.2
			c0-2-1.1-3.2-3.3-3.5c-0.5-0.1-2.5-0.1-5.8-0.1h-10.4c-5.1,0-8.6-0.3-10.4-0.9c-2.2-0.6-3.9-2.2-4.8-4.2c-0.8-2.2-1.1-4.4-1-6.7
			c0-4.7,1-7.9,3.1-9.6c1.7-1.5,4.9-2.4,9.6-2.9c1.8-0.2,5.5-0.3,11-0.3c7.9,0,12.8,0.2,14.8,0.7c2.3,0.4,4.3,1.7,5.7,3.5
			c1.1,2.1,1.7,4.5,1.5,6.8v1.4h-11.3c0.1-1.9-1.2-3.5-3.1-3.7c-1.8-0.1-3.7-0.2-5.5-0.1c-4.5,0-8,0.1-10.4,0.2c-1,0-2,0.2-2.9,0.7
			c-0.9,0.6-1.3,1.6-1.2,2.6c-0.1,1.5,0.9,2.9,2.4,3.2c1.5,0.3,3.1,0.4,4.6,0.3h10.7c0.7,0,2.6,0.1,5.6,0.2c3.5,0.1,6,0.5,7.5,1.2
			c3.3,1.5,5,5.1,5,10.9c0,5.4-1.4,8.8-4.1,10.4c-2.6,1.5-9.3,2.3-20.1,2.3c-8.2,0-13.6-0.3-16.2-0.8c-2.2-0.3-4.1-1.6-5.3-3.5
			c-1-2-1.4-4.3-1.3-6.6C171.3,77.4,171.3,76.7,171.3,75.7z M154.2,88.4v-40h11.5v40H154.2z M115.4,68.8h16.7c1.5,0.1,3-0.1,4.4-0.8
			c1.1-0.7,1.7-2,1.7-4.1c0-2.4-0.4-4-1.3-4.8c-0.8-0.7-2.4-1-4.7-1h-16.7V68.8z M104,88.4v-40h28.9c3.1,0,5.1,0,5.9,0.1
			c2,0.1,3.9,0.6,5.7,1.4c2.2,1.2,3.8,3.2,4.4,5.6c0.6,2.5,0.9,5,0.8,7.5c0,7.1-1.4,11.7-4.3,13.6c-1.6,1-3.4,1.6-5.3,1.7
			c-2.1,0.2-4.1,0.3-6.2,0.3h-18.5v9.8L104,88.4z M65.8,72.9h16.3l-8.3-16L65.8,72.9z M45.1,88.4l21.2-40h15.4l20.7,40H89.8L86,81.3
			H61.7l-3.6,7.1H45.1z M21.6,88.4V74.5L0,48.3h14.7l12.7,16.6l12.6-16.6h14.4L33.1,74.5v13.9H21.6z"/>
		<path class="st1" d="M381.6,0c8.8,0,15.9,7.1,15.9,15.9s-7.1,15.9-15.9,15.9s-15.9-7.1-15.9-15.9c0,0,0,0,0,0
			C365.7,7.1,372.8,0,381.6,0"/>
		<path class="st1" d="M371.4,43.8v30c0.2,8.6-6.6,15.8-15.2,16c-8.6,0.2-15.8-6.6-16-15.2c0-0.3,0-0.5,0-0.8v-26l0,0l-20.6-20.6
			c-6-6.1-6-15.9,0-22l0,0c6.1-6,15.9-6,22,0l23.3,23.3C370.5,34.1,371.3,35.9,371.4,43.8"/>
		<path class="st0" d="M336.6,80.4c2.2,0,4.1,1.8,4.1,4.1s-1.8,4.1-4.1,4.1c-2.2,0-4.1-1.8-4.1-4.1c0,0,0,0,0,0
			C332.5,82.2,334.3,80.4,336.6,80.4"/>
		<path class="st2" d="M336.6,81c1.9,0,3.4,1.5,3.4,3.4c0,1.9-1.5,3.4-3.4,3.4c-1.9,0-3.4-1.5-3.4-3.4c0,0,0,0,0,0
			C333.2,82.5,334.7,81,336.6,81"/>
		<path class="st3" d="M335.9,84.2h0.6c0.2,0,0.4,0,0.7,0c0.1,0,0.2-0.1,0.2-0.2c0.1-0.1,0.1-0.2,0.1-0.3c0-0.1,0-0.2-0.1-0.3
			c-0.1-0.1-0.2-0.1-0.3-0.1h-1.1V84.2z M335.2,86.3v-3.7h1.6c0.3,0,0.6,0,0.9,0.1c0.2,0.1,0.3,0.2,0.4,0.3c0.1,0.2,0.2,0.4,0.2,0.6
			c0,0.2-0.1,0.5-0.3,0.7c-0.2,0.2-0.5,0.3-0.7,0.3c0.1,0.1,0.3,0.2,0.4,0.3c0.2,0.2,0.3,0.4,0.4,0.6l0.5,0.7h-0.9l-0.5-0.8
			c-0.1-0.2-0.2-0.4-0.4-0.5c-0.1-0.1-0.1-0.1-0.2-0.2c-0.1,0-0.2,0-0.4,0h-0.2v1.5L335.2,86.3z"/>
	</g>
</g>
</svg>
